Lexend-wght500-XTRA489-SPACmin.ufo
<glyph name="exclam" format="2">
  <advance width="306"/>
  <unicode hex="0021"/>
  <note>
exclam
</note>
  <outline>
    <contour>
      <point x="180" y="241" type="qcurve"/>
      <point x="120" y="241" type="line"/>
      <point x="98" y="323"/>
      <point x="66" y="533"/>
      <point x="66" y="630" type="qcurve" smooth="yes"/>
      <point x="66" y="700" type="line"/>
      <point x="234" y="700" type="line"/>
      <point x="234" y="630" type="line" smooth="yes"/>
      <point x="234" y="533"/>
      <point x="203" y="323"/>
    </contour>
    <contour>
      <point x="253" y="64" type="qcurve" smooth="yes"/>
      <point x="253" y="36"/>
      <point x="202" y="-11"/>
      <point x="149" y="-11" type="qcurve" smooth="yes"/>
      <point x="96" y="-11"/>
      <point x="45" y="30"/>
      <point x="45" y="64" type="qcurve" smooth="yes"/>
      <point x="45" y="92"/>
      <point x="96" y="139"/>
      <point x="149" y="139" type="qcurve" smooth="yes"/>
      <point x="202" y="139"/>
      <point x="253" y="98"/>
    </contour>
  </outline>
</glyph>
<glyph name="two" format="2">
  <advance width="638"/>
  <unicode hex="0032"/>
  <outline>
    <contour>
      <point x="172" y="104" type="line"/>
      <point x="606" y="104" type="line"/>
      <point x="606" y="0" type="line"/>
      <point x="93" y="0" type="line"/>
      <point x="60" y="82" type="line"/>
      <point x="301" y="291" type="line" smooth="yes"/>
      <point x="361" y="348"/>
      <point x="473" y="458"/>
      <point x="473" y="509" type="qcurve" smooth="yes"/>
      <point x="473" y="556"/>
      <point x="406" y="610"/>
      <point x="342" y="610" type="qcurve" smooth="yes"/>
      <point x="284" y="610"/>
      <point x="172" y="551"/>
      <point x="129" y="482" type="qcurve"/>
      <point x="51" y="538" type="line"/>
      <point x="97" y="613"/>
      <point x="250" y="710"/>
      <point x="355" y="710" type="qcurve" smooth="yes"/>
      <point x="462" y="710"/>
      <point x="584" y="604"/>
      <point x="584" y="522" type="qcurve" smooth="yes"/>
      <point x="584" y="429"/>
      <point x="430" y="281"/>
      <point x="361" y="218" type="qcurve" smooth="yes"/>
      <point x="187" y="60" type="line"/>
    </contour>
  </outline>
</glyph>
<glyph name="five" format="2">
  <advance width="648"/>
  <unicode hex="0035"/>
  <outline>
    <contour>
      <point x="588" y="238" type="qcurve" smooth="yes"/>
      <point x="588" y="134"/>
      <point x="419" y="-7"/>
      <point x="297" y="-7" type="qcurve"/>
      <point x="220" y="-7"/>
      <point x="85" y="56"/>
      <point x="39" y="102" type="qcurve"/>
      <point x="95" y="187" type="line"/>
      <point x="142" y="145"/>
      <point x="248" y="92"/>
      <point x="297" y="92" type="qcurve"/>
      <point x="378" y="92"/>
      <point x="484" y="169"/>
      <point x="484" y="238" type="qcurve"/>
      <point x="484" y="295"/>
      <point x="378" y="373"/>
      <point x="305" y="373" type="qcurve"/>
      <point x="240" y="373"/>
      <point x="150" y="341"/>
      <point x="125" y="331" type="qcurve"/>
      <point x="68" y="403" type="line"/>
      <point x="109" y="700" type="line"/>
      <point x="527" y="700" type="line"/>
      <point x="527" y="600" type="line"/>
      <point x="177" y="600" type="line"/>
      <point x="192" y="619" type="line"/>
      <point x="159" y="397" type="line"/>
      <point x="140" y="426" type="line"/>
      <point x="157" y="440"/>
      <point x="270" y="468"/>
      <point x="324" y="468" type="qcurve"/>
      <point x="431" y="468"/>
      <point x="588" y="343"/>
    </contour>
  </outline>
</glyph>
<glyph name="equal" format="2">
  <advance width="706"/>
  <unicode hex="003D"/>
  <note>
equal
</note>
  <outline>
    <contour>
      <point x="656" y="331" type="line"/>
      <point x="50" y="331" type="line"/>
      <point x="50" y="437" type="line"/>
      <point x="656" y="437" type="line"/>
    </contour>
    <contour>
      <point x="656" y="127" type="line"/>
      <point x="50" y="127" type="line"/>
      <point x="50" y="231" type="line"/>
      <point x="656" y="231" type="line"/>
    </contour>
  </outline>
</glyph>
<glyph name="I" format="2">
  <advance width="618"/>
  <unicode hex="0049"/>
  <note>
I
</note>
  <outline>
    <contour>
      <point x="363" y="700" type="qcurve"/>
      <point x="363" y="0" type="line"/>
      <point x="255" y="0" type="line"/>
      <point x="255" y="700" type="line"/>
      <point x="291" y="700"/>
      <point x="327" y="700"/>
    </contour>
    <contour>
      <point x="546" y="700" type="line"/>
      <point x="546" y="593" type="line"/>
      <point x="72" y="593" type="line"/>
      <point x="72" y="700" type="line"/>
    </contour>
    <contour>
      <point x="546" y="107" type="line"/>
      <point x="546" y="0" type="line"/>
      <point x="72" y="0" type="line"/>
      <point x="72" y="107" type="line"/>
    </contour>
  </outline>
</glyph>
<glyph name="J" format="2">
  <advance width="806"/>
  <unicode hex="004A"/>
  <note>
J
</note>
  <outline>
    <contour>
      <point x="326" y="-10" type="qcurve"/>
      <point x="198" y="-10"/>
      <point x="66" y="119"/>
      <point x="50" y="147" type="qcurve"/>
      <point x="122" y="223" type="line"/>
      <point x="159" y="173"/>
      <point x="247" y="90"/>
      <point x="326" y="90" type="qcurve" smooth="yes"/>
      <point x="414" y="90"/>
      <point x="516" y="203"/>
      <point x="516" y="283" type="qcurve"/>
      <point x="516" y="700" type="line"/>
      <point x="624" y="700" type="line"/>
      <point x="624" y="273" type="line"/>
      <point x="624" y="165"/>
      <point x="469" y="-10"/>
    </contour>
    <contour>
      <point x="756" y="700" type="line"/>
      <point x="756" y="593" type="line"/>
      <point x="342" y="593" type="line"/>
      <point x="342" y="700" type="line"/>
    </contour>
  </outline>
</glyph>
<glyph name="L" format="2">
  <advance width="739"/>
  <unicode hex="004C"/>
  <note>
L
</note>
  <outline>
    <contour>
      <point x="158" y="104" type="line"/>
      <point x="674" y="104" type="line"/>
      <point x="674" y="0" type="line"/>
      <point x="98" y="0" type="line"/>
      <point x="98" y="700" type="line"/>
      <point x="206" y="700" type="line"/>
      <point x="206" y="68" type="line"/>
    </contour>
  </outline>
</glyph>
<glyph name="N" format="2">
  <advance width="953"/>
  <unicode hex="004E"/>
  <note>
N
</note>
  <outline>
    <contour>
      <point x="747" y="470" type="qcurve"/>
      <point x="747" y="700" type="line"/>
      <point x="855" y="700" type="line"/>
      <point x="855" y="0" type="line"/>
      <point x="746" y="0" type="line"/>
      <point x="185" y="552" type="line"/>
      <point x="186" y="566" type="line"/>
      <point x="192" y="497"/>
      <point x="206" y="360"/>
      <point x="206" y="291" type="qcurve"/>
      <point x="206" y="0" type="line"/>
      <point x="98" y="0" type="line"/>
      <point x="98" y="700" type="line"/>
      <point x="205" y="700" type="line"/>
      <point x="773" y="127" type="line"/>
      <point x="767" y="118" type="line"/>
      <point x="755" y="193"/>
      <point x="747" y="388"/>
    </contour>
  </outline>
</glyph>
<glyph name="R" format="2">
  <advance width="825"/>
  <unicode hex="0052"/>
  <note>
R
</note>
  <outline>
    <contour>
      <point x="734" y="485" type="qcurve" smooth="yes"/>
      <point x="734" y="390"/>
      <point x="587" y="258"/>
      <point x="487" y="258" type="qcurve" smooth="yes"/>
      <point x="198" y="258" type="line"/>
      <point x="197" y="362" type="line"/>
      <point x="477" y="362" type="line" smooth="yes"/>
      <point x="534" y="362"/>
      <point x="619" y="435"/>
      <point x="619" y="485" type="qcurve" smooth="yes"/>
      <point x="619" y="531"/>
      <point x="534" y="596"/>
      <point x="477" y="596" type="qcurve" smooth="yes"/>
      <point x="197" y="596" type="line"/>
      <point x="206" y="621" type="line"/>
      <point x="206" y="0" type="line"/>
      <point x="98" y="0" type="line"/>
      <point x="98" y="700" type="line"/>
      <point x="507" y="700" type="line" smooth="yes"/>
      <point x="599" y="700"/>
      <point x="734" y="575"/>
    </contour>
    <contour>
      <point x="402" y="316" type="line"/>
      <point x="517" y="341" type="line"/>
      <point x="775" y="-1" type="line"/>
      <point x="640" y="0" type="line"/>
    </contour>
  </outline>
</glyph>
<glyph name="U" format="2">
  <advance width="880"/>
  <unicode hex="0055"/>
  <note>
U
</note>
  <anchor x="440" y="0" name="bottom"/>
  <anchor x="530" y="0" name="ogonek"/>
  <anchor x="440" y="700" name="top"/>
  <anchor x="831" y="700" name="topright"/>
  <outline>
    <contour>
      <point x="689" y="701" type="line"/>
      <point x="792" y="701" type="line"/>
      <point x="792" y="335" type="line"/>
      <point x="792" y="188"/>
      <point x="599" y="-6"/>
      <point x="440" y="-6" type="qcurve"/>
      <point x="281" y="-6"/>
      <point x="88" y="188"/>
      <point x="88" y="335" type="qcurve"/>
      <point x="88" y="701" type="line"/>
      <point x="196" y="701" type="line"/>
      <point x="196" y="339" type="line"/>
      <point x="196" y="235"/>
      <point x="338" y="99"/>
      <point x="440" y="99" type="qcurve"/>
      <point x="547" y="99"/>
      <point x="689" y="235"/>
      <point x="689" y="339" type="qcurve"/>
    </contour>
  </outline>
</glyph>
<glyph name="V" format="2">
  <advance width="816"/>
  <unicode hex="0056"/>
  <note>
V
</note>
  <outline>
    <contour>
      <point x="347" y="0" type="line"/>
      <point x="24" y="700" type="line"/>
      <point x="146" y="700" type="line"/>
      <point x="333" y="283" type="line" smooth="yes"/>
      <point x="355" y="234"/>
      <point x="415" y="109"/>
      <point x="431" y="61" type="qcurve"/>
      <point x="399" y="60" type="line"/>
      <point x="417" y="109"/>
      <point x="472" y="232"/>
      <point x="492" y="281" type="qcurve" smooth="yes"/>
      <point x="665" y="700" type="line"/>
      <point x="792" y="700" type="line"/>
      <point x="477" y="0" type="line"/>
    </contour>
  </outline>
</glyph>
<glyph name="W" format="2">
  <advance width="1140"/>
  <unicode hex="0057"/>
  <note>
W
</note>
  <outline>
    <contour>
      <point x="282" y="0" type="line"/>
      <point x="24" y="700" type="line"/>
      <point x="143" y="700" type="line"/>
      <point x="291" y="289" type="line" smooth="yes"/>
      <point x="307" y="244"/>
      <point x="339" y="139"/>
      <point x="351" y="99" type="qcurve"/>
      <point x="307" y="100" type="line"/>
      <point x="321" y="140"/>
      <point x="363" y="244"/>
      <point x="383" y="289" type="qcurve" smooth="yes"/>
      <point x="512" y="579" type="line"/>
      <point x="616" y="579" type="line"/>
      <point x="741" y="291" type="line" smooth="yes"/>
      <point x="760" y="248"/>
      <point x="802" y="147"/>
      <point x="812" y="109" type="qcurve"/>
      <point x="772" y="102" type="line"/>
      <point x="784" y="143"/>
      <point x="817" y="251"/>
      <point x="836" y="296" type="qcurve" smooth="yes"/>
      <point x="1000" y="700" type="line"/>
      <point x="1116" y="700" type="line"/>
      <point x="828" y="0" type="line"/>
      <point x="753" y="0" type="line"/>
      <point x="550" y="471" type="line"/>
      <point x="569" y="467" type="line"/>
      <point x="365" y="0" type="line"/>
    </contour>
  </outline>
</glyph>
<glyph name="Y" format="2">
  <advance width="820"/>
  <unicode hex="0059"/>
  <note>
Y
</note>
  <anchor x="422" y="0" name="bottom"/>
  <anchor x="422" y="700" name="top"/>
  <anchor x="8" y="700" name="topleft"/>
  <outline>
    <contour>
      <point x="676" y="700" type="line"/>
      <point x="810" y="700" type="line"/>
      <point x="469" y="263" type="line"/>
      <point x="474" y="321" type="line"/>
      <point x="474" y="0" type="line"/>
      <point x="366" y="0" type="line"/>
      <point x="366" y="313" type="line"/>
      <point x="386" y="236" type="line"/>
      <point x="10" y="700" type="line"/>
      <point x="160" y="700" type="line"/>
      <point x="433" y="347" type="line"/>
      <point x="410" y="347" type="line"/>
    </contour>
  </outline>
</glyph>
<glyph name="bracketleft" format="2">
  <advance width="543"/>
  <unicode hex="005B"/>
  <note>
bracketleft
</note>
  <outline>
    <contour>
      <point x="477" y="-190" type="line"/>
      <point x="80" y="-190" type="line"/>
      <point x="80" y="700" type="line"/>
      <point x="477" y="700" type="line"/>
      <point x="477" y="606" type="line"/>
      <point x="187" y="606" type="line"/>
      <point x="193" y="614" type="line"/>
      <point x="193" y="-108" type="line"/>
      <point x="183" y="-96" type="line"/>
      <point x="477" y="-96" type="line"/>
    </contour>
  </outline>
</glyph>
<glyph name="f" format="2">
  <advance width="533"/>
  <unicode hex="0066"/>
  <note>
f
</note>
  <outline>
    <contour>
      <point x="497" y="506" type="line"/>
      <point x="497" y="411" type="line"/>
      <point x="45" y="411" type="line"/>
      <point x="45" y="506" type="line"/>
    </contour>
    <contour>
      <point x="530" y="695" type="qcurve"/>
      <point x="495" y="606" type="line"/>
      <point x="477" y="619"/>
      <point x="423" y="643"/>
      <point x="397" y="643" type="qcurve" smooth="yes"/>
      <point x="322" y="643"/>
      <point x="263" y="570"/>
      <point x="263" y="524" type="qcurve" smooth="yes"/>
      <point x="263" y="0" type="line"/>
      <point x="232" y="0"/>
      <point x="200" y="0"/>
      <point x="169" y="0" type="qcurve"/>
      <point x="169" y="524" type="line" smooth="yes"/>
      <point x="169" y="618"/>
      <point x="290" y="739"/>
      <point x="385" y="739" type="qcurve" smooth="yes"/>
      <point x="439" y="739"/>
      <point x="514" y="709"/>
    </contour>
  </outline>
</glyph>
<glyph name="g" format="2">
  <advance width="783"/>
  <unicode hex="0067"/>
  <note>
g
</note>
  <outline>
    <contour>
      <point x="150" y="-167" type="qcurve"/>
      <point x="186" y="-81" type="line"/>
      <point x="219" y="-97"/>
      <point x="331" y="-138"/>
      <point x="409" y="-138" type="qcurve"/>
      <point x="496" y="-138"/>
      <point x="608" y="-35"/>
      <point x="608" y="60" type="qcurve"/>
      <point x="608" y="121" type="line"/>
      <point x="619" y="114" type="line"/>
      <point x="609" y="71"/>
      <point x="447" y="-10"/>
      <point x="344" y="-10" type="qcurve"/>
      <point x="208" y="-10"/>
      <point x="40" y="144"/>
      <point x="40" y="263" type="qcurve" smooth="yes"/>
      <point x="40" y="382"/>
      <point x="219" y="536"/>
      <point x="361" y="536" type="qcurve"/>
      <point x="476" y="536"/>
      <point x="630" y="444"/>
      <point x="630" y="410" type="qcurve"/>
      <point x="608" y="402" type="line"/>
      <point x="608" y="525" type="line"/>
      <point x="711" y="525" type="line"/>
      <point x="711" y="72" type="line"/>
      <point x="711" y="-82"/>
      <point x="524" y="-230"/>
      <point x="409" y="-230" type="qcurve"/>
      <point x="318" y="-230"/>
      <point x="189" y="-192"/>
    </contour>
    <contour>
      <point x="612" y="263" type="qcurve"/>
      <point x="612" y="340"/>
      <point x="486" y="442"/>
      <point x="385" y="442" type="qcurve"/>
      <point x="281" y="442"/>
      <point x="145" y="339"/>
      <point x="145" y="263" type="qcurve"/>
      <point x="145" y="187"/>
      <point x="281" y="85"/>
      <point x="385" y="85" type="qcurve"/>
      <point x="486" y="85"/>
      <point x="612" y="186"/>
    </contour>
  </outline>
</glyph>
<glyph name="braceleft" format="2">
  <advance width="551"/>
  <unicode hex="007B"/>
  <note>
braceleft
</note>
  <outline>
    <contour>
      <point x="527" y="-116" type="qcurve"/>
      <point x="509" y="-200" type="line"/>
      <point x="343" y="-178"/>
      <point x="234" y="-79"/>
      <point x="234" y="-7" type="qcurve"/>
      <point x="235" y="88" type="line"/>
      <point x="235" y="145"/>
      <point x="159" y="200"/>
      <point x="87" y="201" type="qcurve"/>
      <point x="44" y="201" type="line"/>
      <point x="44" y="292" type="line"/>
      <point x="89" y="292" type="line"/>
      <point x="161" y="293"/>
      <point x="235" y="360"/>
      <point x="235" y="412" type="qcurve"/>
      <point x="234" y="507" type="line"/>
      <point x="234" y="587"/>
      <point x="360" y="678"/>
      <point x="509" y="700" type="qcurve"/>
      <point x="527" y="616" type="line"/>
      <point x="411" y="593"/>
      <point x="345" y="532"/>
      <point x="345" y="478" type="qcurve"/>
      <point x="347" y="398" type="line"/>
      <point x="347" y="338"/>
      <point x="275" y="263"/>
      <point x="209" y="249" type="qcurve"/>
      <point x="208" y="252" type="line"/>
      <point x="275" y="236"/>
      <point x="347" y="162"/>
      <point x="347" y="102" type="qcurve"/>
      <point x="345" y="22" type="line"/>
      <point x="345" y="-32"/>
      <point x="411" y="-91"/>
    </contour>
  </outline>
</glyph>
<glyph name="macron" format="2">
  <advance width="464"/>
  <unicode hex="00AF"/>
  <outline>
    <contour>
      <point x="394" y="590" type="line"/>
      <point x="70" y="590" type="line"/>
      <point x="70" y="670" type="line"/>
      <point x="394" y="670" type="line"/>
    </contour>
  </outline>
</glyph>
<glyph name="AE" format="2">
  <advance width="1249"/>
  <unicode hex="00C6"/>
  <note>
AE
</note>
  <outline>
    <contour>
      <point x="214" y="153" type="line"/>
      <point x="268" y="257" type="line"/>
      <point x="623" y="257" type="line"/>
      <point x="605" y="213" type="line"/>
      <point x="605" y="562" type="line"/>
      <point x="624" y="551" type="line"/>
      <point x="134" y="0" type="line"/>
      <point x="5" y="0" type="line"/>
      <point x="633" y="700" type="line"/>
      <point x="1174" y="700" type="line"/>
      <point x="1174" y="596" type="line"/>
      <point x="704" y="596" type="line"/>
      <point x="713" y="605" type="line"/>
      <point x="713" y="380" type="line"/>
      <point x="705" y="397" type="line"/>
      <point x="1129" y="397" type="line"/>
      <point x="1129" y="293" type="line"/>
      <point x="703" y="293" type="line"/>
      <point x="713" y="307" type="line"/>
      <point x="713" y="83" type="line"/>
      <point x="704" y="104" type="line"/>
      <point x="1174" y="104" type="line"/>
      <point x="1174" y="0" type="line"/>
      <point x="605" y="0" type="line"/>
      <point x="605" y="166" type="line"/>
      <point x="628" y="153" type="line"/>
    </contour>
  </outline>
</glyph>
<glyph name="Oslash" format="2">
  <advance width="958"/>
  <unicode hex="00D8"/>
  <note>
Oslash
</note>
  <outline>
    <contour>
      <point x="109" y="-34" type="line"/>
      <point x="49" y="39" type="line"/>
      <point x="857" y="737" type="line"/>
      <point x="923" y="669" type="line"/>
    </contour>
    <contour>
      <point x="489" y="710" type="qcurve"/>
      <point x="673" y="710"/>
      <point x="912" y="501"/>
      <point x="912" y="350" type="qcurve"/>
      <point x="912" y="199"/>
      <point x="673" y="-10"/>
      <point x="489" y="-10" type="qcurve"/>
      <point x="304" y="-10"/>
      <point x="66" y="199"/>
      <point x="66" y="350" type="qcurve"/>
      <point x="66" y="501"/>
      <point x="304" y="710"/>
    </contour>
    <contour>
      <point x="489" y="95" type="qcurve" smooth="yes"/>
      <point x="626" y="95"/>
      <point x="802" y="242"/>
      <point x="802" y="350" type="qcurve"/>
      <point x="802" y="458"/>
      <point x="626" y="605"/>
      <point x="489" y="605" type="qcurve" smooth="yes"/>
      <point x="350" y="605"/>
      <point x="176" y="459"/>
      <point x="176" y="350" type="qcurve"/>
      <point x="176" y="241"/>
      <point x="350" y="95"/>
    </contour>
  </outline>
</glyph>
<glyph name="Aogonek" format="2">
  <advance width="853"/>
  <unicode hex="0104"/>
  <outline>
    <contour>
      <point x="774" y="0" type="line"/>
      <point x="704" y="0" type="line"/>
      <point x="479" y="462" type="line" smooth="yes"/>
      <point x="471" y="478"/>
      <point x="456" y="508"/>
      <point x="449" y="523" type="qcurve" smooth="yes"/>
      <point x="440" y="544"/>
      <point x="421" y="589"/>
      <point x="411" y="617" type="qcurve"/>
      <point x="443" y="618" type="line"/>
      <point x="431" y="586"/>
      <point x="409" y="535"/>
      <point x="398" y="511" type="qcurve" smooth="yes"/>
      <point x="392" y="498"/>
      <point x="379" y="472"/>
      <point x="372" y="458" type="qcurve" smooth="yes"/>
      <point x="149" y="0" type="line"/>
      <point x="25" y="0" type="line"/>
      <point x="360" y="700" type="line"/>
      <point x="500" y="700" type="line"/>
      <point x="818" y="32" type="line"/>
      <point x="812" y="0" type="line"/>
      <point x="763" y="-19"/>
      <point x="677" y="-72"/>
      <point x="677" y="-100" type="qcurve" smooth="yes"/>
      <point x="677" y="-117"/>
      <point x="704" y="-144"/>
      <point x="724" y="-144" type="qcurve" smooth="yes"/>
      <point x="739" y="-144"/>
      <point x="773" y="-129"/>
      <point x="789" y="-118" type="qcurve"/>
      <point x="828" y="-177" type="line"/>
      <point x="803" y="-194"/>
      <point x="740" y="-221"/>
      <point x="704" y="-221" type="qcurve" smooth="yes"/>
      <point x="654" y="-221"/>
      <point x="584" y="-162"/>
      <point x="584" y="-114" type="qcurve" smooth="yes"/>
      <point x="584" y="-61"/>
      <point x="699" y="36"/>
      <point x="759" y="52" type="qcurve"/>
    </contour>
    <contour>
      <point x="435" y="164" type="line"/>
      <point x="174" y="164" type="line"/>
      <point x="217" y="278" type="line"/>
      <point x="435" y="278" type="line"/>
    </contour>
    <contour>
      <point x="629" y="164" type="line"/>
      <point x="435" y="164" type="line"/>
      <point x="435" y="278" type="line"/>
      <point x="612" y="278" type="line"/>
    </contour>
  </outline>
</glyph>
<glyph name="aogonek" format="2">
  <advance width="781"/>
  <unicode hex="0105"/>
  <note>
aogonek
</note>
  <outline>
    <contour>
      <point x="512" y="28" type="qcurve" smooth="yes"/>
      <point x="479" y="11"/>
      <point x="401" y="-10"/>
      <point x="360" y="-10" type="qcurve"/>
      <point x="210" y="-10"/>
      <point x="38" y="144"/>
      <point x="38" y="263" type="qcurve"/>
      <point x="38" y="382"/>
      <point x="216" y="536"/>
      <point x="356" y="536" type="qcurve"/>
      <point x="472" y="536"/>
      <point x="629" y="451"/>
      <point x="629" y="411" type="qcurve"/>
      <point x="599" y="389" type="line"/>
      <point x="599" y="525" type="line"/>
      <point x="702" y="525" type="line"/>
      <point x="702" y="0" type="line"/>
      <point x="661" y="-19"/>
      <point x="587" y="-72"/>
      <point x="587" y="-100" type="qcurve" smooth="yes"/>
      <point x="587" y="-117"/>
      <point x="614" y="-144"/>
      <point x="634" y="-144" type="qcurve" smooth="yes"/>
      <point x="649" y="-144"/>
      <point x="683" y="-129"/>
      <point x="699" y="-118" type="qcurve"/>
      <point x="738" y="-177" type="line"/>
      <point x="713" y="-194"/>
      <point x="650" y="-221"/>
      <point x="614" y="-221" type="qcurve" smooth="yes"/>
      <point x="564" y="-221"/>
      <point x="494" y="-162"/>
      <point x="494" y="-114" type="qcurve" smooth="yes"/>
      <point x="494" y="-61"/>
      <point x="609" y="21"/>
      <point x="669" y="52" type="qcurve"/>
      <point x="696" y="0" type="line"/>
      <point x="599" y="0" type="line"/>
      <point x="599" y="125" type="line"/>
      <point x="619" y="134" type="line"/>
      <point x="619" y="112"/>
      <point x="559" y="51"/>
    </contour>
    <contour>
      <point x="143" y="263" type="qcurve"/>
      <point x="143" y="187"/>
      <point x="275" y="85"/>
      <point x="380" y="85" type="qcurve"/>
      <point x="478" y="85"/>
      <point x="603" y="187"/>
      <point x="603" y="263" type="qcurve"/>
      <point x="603" y="338"/>
      <point x="477" y="440"/>
      <point x="379" y="440" type="qcurve"/>
      <point x="274" y="440"/>
      <point x="143" y="338"/>
    </contour>
  </outline>
</glyph>
<glyph name="OE" format="2">
  <advance width="1307"/>
  <unicode hex="0152"/>
  <note>
OE
</note>
  <outline>
    <contour>
      <point x="48" y="350" type="qcurve" smooth="yes"/>
      <point x="48" y="492"/>
      <point x="261" y="700"/>
      <point x="465" y="700" type="qcurve" smooth="yes"/>
      <point x="1232" y="700" type="line"/>
      <point x="1232" y="596" type="line"/>
      <point x="750" y="596" type="line"/>
      <point x="759" y="614" type="line"/>
      <point x="759" y="402" type="line"/>
      <point x="750" y="411" type="line"/>
      <point x="1177" y="411" type="line"/>
      <point x="1177" y="307" type="line"/>
      <point x="753" y="307" type="line"/>
      <point x="759" y="316" type="line"/>
      <point x="759" y="97" type="line"/>
      <point x="752" y="104" type="line"/>
      <point x="1232" y="104" type="line"/>
      <point x="1232" y="0" type="line"/>
      <point x="445" y="0" type="line" smooth="yes"/>
      <point x="250" y="0"/>
      <point x="48" y="206"/>
    </contour>
    <contour>
      <point x="692" y="104" type="line"/>
      <point x="651" y="57" type="line"/>
      <point x="651" y="651" type="line"/>
      <point x="692" y="596" type="line"/>
      <point x="468" y="596" type="line" smooth="yes"/>
      <point x="316" y="596"/>
      <point x="158" y="446"/>
      <point x="158" y="350" type="qcurve" smooth="yes"/>
      <point x="158" y="253"/>
      <point x="306.0" y="104"/>
      <point x="448" y="104" type="qcurve" smooth="yes"/>
    </contour>
  </outline>
</glyph>
<glyph name="oogonek" format="2">
  <advance width="773"/>
  <unicode hex="01EB"/>
  <outline>
    <contour>
      <point x="144" y="263" type="qcurve"/>
      <point x="142" y="185"/>
      <point x="285" y="84"/>
      <point x="387" y="84" type="qcurve"/>
      <point x="489" y="84"/>
      <point x="631" y="185"/>
      <point x="629" y="263" type="qcurve"/>
      <point x="631" y="342"/>
      <point x="489" y="442"/>
      <point x="387" y="442" type="qcurve"/>
      <point x="285" y="442"/>
      <point x="142" y="342"/>
    </contour>
    <contour>
      <point x="387" y="-10" type="qcurve"/>
      <point x="233" y="-10"/>
      <point x="39" y="144"/>
      <point x="39" y="263" type="qcurve"/>
      <point x="39" y="382"/>
      <point x="233" y="536"/>
      <point x="387" y="536" type="qcurve"/>
      <point x="540" y="536"/>
      <point x="734" y="382"/>
      <point x="734" y="263" type="qcurve"/>
      <point x="734" y="180"/>
      <point x="636" y="57"/>
      <point x="555" y="19" type="qcurve" smooth="yes"/>
      <point x="515" y="0"/>
      <point x="457" y="-44"/>
      <point x="457" y="-73" type="qcurve"/>
      <point x="457" y="-98"/>
      <point x="487" y="-124"/>
      <point x="500" y="-124" type="qcurve"/>
      <point x="516" y="-124"/>
      <point x="543" y="-102"/>
      <point x="552" y="-89" type="qcurve"/>
      <point x="597" y="-133" type="line"/>
      <point x="584" y="-156"/>
      <point x="526" y="-201"/>
      <point x="486" y="-201" type="qcurve"/>
      <point x="446" y="-201"/>
      <point x="376" y="-146"/>
      <point x="376" y="-91" type="qcurve"/>
      <point x="376" y="-13"/>
      <point x="486" y="62"/>
      <point x="538" y="78" type="qcurve"/>
      <point x="543" y="23" type="line"/>
      <point x="507" y="9"/>
      <point x="433" y="-10"/>
    </contour>
  </outline>
</glyph>
<glyph name="ogonek" format="2">
  <advance width="295"/>
  <unicode hex="02DB"/>
  <outline>
    <contour>
      <point x="139" y="-201" type="qcurve" smooth="yes"/>
      <point x="98" y="-201"/>
      <point x="30" y="-142"/>
      <point x="30" y="-98" type="qcurve" smooth="yes"/>
      <point x="30" y="-36"/>
      <point x="134" y="36"/>
      <point x="185" y="50" type="qcurve"/>
      <point x="229" y="43" type="line"/>
      <point x="229" y="-1" type="line"/>
      <point x="189" y="-10"/>
      <point x="121" y="-59"/>
      <point x="121" y="-88" type="qcurve" smooth="yes"/>
      <point x="121" y="-104"/>
      <point x="139" y="-124"/>
      <point x="155" y="-124" type="qcurve" smooth="yes"/>
      <point x="168" y="-124"/>
      <point x="186" y="-109"/>
      <point x="192" y="-99" type="qcurve"/>
      <point x="248" y="-139" type="line"/>
      <point x="240" y="-160"/>
      <point x="179" y="-201"/>
    </contour>
  </outline>
</glyph>
<glyph name="dotaccentcomb" format="2">
  <unicode hex="0307"/>
  <outline>
    <contour>
      <point x="198" y="690" type="qcurve" smooth="yes"/>
      <point x="198" y="665"/>
      <point x="164" y="625"/>
      <point x="129" y="625" type="qcurve" smooth="yes"/>
      <point x="94" y="625"/>
      <point x="60" y="661"/>
      <point x="60" y="690" type="qcurve" smooth="yes"/>
      <point x="60" y="715"/>
      <point x="94" y="755"/>
      <point x="129" y="755" type="qcurve" smooth="yes"/>
      <point x="164" y="755"/>
      <point x="198" y="719"/>
    </contour>
  </outline>
</glyph>
<glyph name="caroncomb" format="2">
  <unicode hex="030C"/>
  <outline>
    <contour>
      <point x="196" y="700" type="line"/>
      <point x="166" y="700" type="line"/>
      <point x="291" y="773" type="line"/>
      <point x="329" y="740" type="line"/>
      <point x="224" y="627" type="line"/>
      <point x="138" y="627" type="line"/>
      <point x="33" y="740" type="line"/>
      <point x="71" y="773" type="line"/>
    </contour>
  </outline>
</glyph>
<glyph name="dotbelowcomb" format="2">
  <unicode hex="0323"/>
  <anchor x="110" y="0" name="_bottom"/>
  <anchor x="119" y="-206" name="bottom"/>
  <outline>
    <contour>
      <point x="170" y="-141" type="qcurve" smooth="yes"/>
      <point x="170" y="-166"/>
      <point x="136" y="-206"/>
      <point x="101" y="-206" type="qcurve" smooth="yes"/>
      <point x="66" y="-206"/>
      <point x="32" y="-170"/>
      <point x="32" y="-141" type="qcurve" smooth="yes"/>
      <point x="32" y="-116"/>
      <point x="66" y="-76"/>
      <point x="101" y="-76" type="qcurve" smooth="yes"/>
      <point x="136" y="-76"/>
      <point x="170" y="-112"/>
    </contour>
  </outline>
</glyph>
<glyph name="commaaccentcomb" format="2">
  <unicode hex="0326"/>
  <anchor x="149" y="100" name="_bottom"/>
  <anchor x="148" y="-344" name="bottom"/>
  <anchor x="146" y="-344" name="_top"/>
  <outline>
    <contour>
      <point x="89" y="-242" type="qcurve"/>
      <point x="65" y="-200" type="line"/>
      <point x="85" y="-196"/>
      <point x="119" y="-164"/>
      <point x="119" y="-148" type="qcurve" smooth="yes"/>
      <point x="119" y="-138"/>
      <point x="106" y="-132"/>
      <point x="98" y="-130" type="qcurve" smooth="yes"/>
      <point x="88" y="-127"/>
      <point x="70" y="-114"/>
      <point x="70" y="-93" type="qcurve"/>
      <point x="70" y="-69"/>
      <point x="108" y="-44"/>
      <point x="135" y="-44" type="qcurve"/>
      <point x="162" y="-44"/>
      <point x="213" y="-81"/>
      <point x="213" y="-121" type="qcurve" smooth="yes"/>
      <point x="213" y="-173"/>
      <point x="115" y="-233"/>
    </contour>
  </outline>
</glyph>
<glyph name="guilsinglleft" format="2">
  <advance width="349"/>
  <unicode hex="2039"/>
  <note>
guilsinglleft
</note>
  <outline>
    <contour>
      <point x="129" y="245" type="line"/>
      <point x="130" y="276" type="line"/>
      <point x="309" y="105" type="line"/>
      <point x="236" y="50" type="line"/>
      <point x="7" y="258" type="line"/>
      <point x="7" y="258" type="line"/>
      <point x="235" y="471" type="line"/>
      <point x="308" y="416" type="line"/>
    </contour>
  </outline>
</glyph>
<glyph name="colonsign" format="2">
  <advance width="773"/>
  <unicode hex="20A1"/>
  <outline>
    <contour>
      <point x="221" y="-116" type="line"/>
      <point x="124" y="-70" type="line"/>
      <point x="556" y="803" type="line"/>
      <point x="649" y="763" type="line"/>
    </contour>
    <contour>
      <point x="401" y="-159" type="line"/>
      <point x="304" y="-113" type="line"/>
      <point x="736" y="760" type="line"/>
      <point x="829" y="720" type="line"/>
    </contour>
    <contour>
      <point x="698" y="194" type="qcurve"/>
      <point x="750" y="104" type="line"/>
      <point x="707" y="69"/>
      <point x="536" y="-10"/>
      <point x="432" y="-10" type="qcurve" smooth="yes"/>
      <point x="263" y="-10"/>
      <point x="28" y="187"/>
      <point x="28" y="350" type="qcurve" smooth="yes"/>
      <point x="28" y="504"/>
      <point x="270" y="706"/>
      <point x="432" y="706" type="qcurve" smooth="yes"/>
      <point x="533" y="706"/>
      <point x="709" y="632"/>
      <point x="755" y="589" type="qcurve"/>
      <point x="691" y="498" type="line"/>
      <point x="637" y="542"/>
      <point x="505" y="600"/>
      <point x="422" y="600" type="qcurve" smooth="yes"/>
      <point x="316" y="600"/>
      <point x="138" y="465"/>
      <point x="138" y="350" type="qcurve" smooth="yes"/>
      <point x="138" y="225"/>
      <point x="324" y="95"/>
      <point x="440" y="95" type="qcurve" smooth="yes"/>
      <point x="529" y="95"/>
      <point x="653" y="161"/>
    </contour>
  </outline>
</glyph>
<glyph name="peseta" format="2">
  <advance width="1093"/>
  <unicode hex="20A7"/>
  <outline>
    <contour>
      <point x="1023" y="429" type="line"/>
      <point x="90" y="429" type="line"/>
      <point x="90" y="538" type="line"/>
      <point x="1023" y="538" type="line"/>
    </contour>
    <contour>
      <point x="242" y="700" type="line"/>
      <point x="651" y="700" type="line" smooth="yes"/>
      <point x="743" y="700"/>
      <point x="878" y="575"/>
      <point x="878" y="485" type="qcurve" smooth="yes"/>
      <point x="878" y="390"/>
      <point x="731" y="258"/>
      <point x="631" y="258" type="qcurve" smooth="yes"/>
      <point x="342" y="258" type="line"/>
      <point x="350" y="282" type="line"/>
      <point x="350" y="0" type="line"/>
      <point x="242" y="0" type="line"/>
    </contour>
    <contour>
      <point x="341" y="362" type="line"/>
      <point x="621" y="362" type="line" smooth="yes"/>
      <point x="678" y="362"/>
      <point x="763" y="435"/>
      <point x="763" y="485" type="qcurve" smooth="yes"/>
      <point x="763" y="531"/>
      <point x="678" y="596"/>
      <point x="621" y="596" type="qcurve" smooth="yes"/>
      <point x="341" y="596" type="line"/>
      <point x="350" y="621" type="line"/>
      <point x="350" y="348" type="line"/>
    </contour>
  </outline>
</glyph>
<glyph name="increment" format="2">
  <advance width="845"/>
  <unicode hex="2206"/>
  <note>
increment
</note>
  <outline>
    <contour>
      <point x="423" y="722" type="line"/>
      <point x="835" y="0" type="line"/>
      <point x="835" y="0" type="line"/>
      <point x="15" y="0" type="line"/>
      <point x="14" y="0" type="line"/>
      <point x="423" y="721" type="line"/>
    </contour>
    <contour>
      <point x="431" y="530" type="line"/>
      <point x="170" y="64" type="line"/>
      <point x="120" y="103" type="line"/>
      <point x="736" y="103" type="line"/>
      <point x="677" y="61" type="line"/>
      <point x="415" y="530" type="line"/>
    </contour>
  </outline>
</glyph>
<glyph name="product" format="2">
  <advance width="948"/>
  <unicode hex="220F"/>
  <note>
product
</note>
  <outline>
    <contour>
      <point x="321" y="-200" type="line"/>
      <point x="197" y="-200" type="line"/>
      <point x="197" y="625" type="line"/>
      <point x="321" y="625" type="line"/>
    </contour>
    <contour>
      <point x="920" y="587" type="line"/>
      <point x="28" y="587" type="line"/>
      <point x="28" y="700" type="line"/>
      <point x="920" y="700" type="line"/>
    </contour>
    <contour>
      <point x="751" y="-200" type="line"/>
      <point x="626" y="-200" type="line"/>
      <point x="626" y="656" type="line"/>
      <point x="751" y="656" type="line"/>
    </contour>
  </outline>
</glyph>
<glyph name="minus" format="2">
  <advance width="721"/>
  <unicode hex="2212"/>
  <note>
minus
</note>
  <outline>
    <contour>
      <point x="671" y="235" type="line"/>
      <point x="50" y="235" type="line"/>
      <point x="50" y="350" type="line"/>
      <point x="671" y="350" type="line"/>
    </contour>
  </outline>
</glyph>
<glyph name="divisionslash" format="2">
  <advance width="571"/>
  <unicode hex="2215"/>
  <note>
divisionslash
</note>
  <outline>
    <contour>
      <point x="125" y="-107" type="line"/>
      <point x="23" y="-107" type="line"/>
      <point x="447" y="756" type="line"/>
      <point x="549" y="756" type="line"/>
    </contour>
  </outline>
</glyph>
<glyph name="I.ss01" format="2">
  <advance width="308"/>
  <note>
I
</note>
  <outline>
    <contour>
      <point x="208" y="700" type="qcurve"/>
      <point x="208" y="0" type="line"/>
      <point x="100" y="0" type="line"/>
      <point x="100" y="700" type="line"/>
      <point x="101" y="700"/>
      <point x="207" y="700"/>
    </contour>
  </outline>
</glyph>
<glyph name="acutecomb.case" format="2">
  <outline>
    <contour>
      <point x="225" y="679" type="line"/>
      <point x="51" y="585" type="line"/>
      <point x="17" y="636" type="line"/>
      <point x="160" y="761" type="line"/>
    </contour>
  </outline>
</glyph>
<glyph name="dieresiscomb.case" format="2">
  <anchor x="202" y="517" name="_top"/>
  <anchor x="202" y="704" name="top"/>
  <anchor x="202" y="704" name="top"/>
  <outline>
    <contour>
      <point x="168" y="639" type="qcurve" smooth="yes"/>
      <point x="168.0" y="614"/>
      <point x="134.07462686567163" y="574.0"/>
      <point x="99" y="574" type="qcurve" smooth="yes"/>
      <point x="63.92537313432836" y="574.0"/>
      <point x="30.0" y="609.8955223880597"/>
      <point x="30" y="639" type="qcurve" smooth="yes"/>
      <point x="30.0" y="663.6268656716418"/>
      <point x="63.92537313432836" y="704.0"/>
      <point x="99" y="704" type="qcurve" smooth="yes"/>
      <point x="134.07462686567163" y="704.0"/>
      <point x="168.0" y="668"/>
    </contour>
    <contour>
      <point x="374" y="639" type="qcurve" smooth="yes"/>
      <point x="374.0" y="614"/>
      <point x="340.07462686567163" y="574.0"/>
      <point x="305" y="574" type="qcurve" smooth="yes"/>
      <point x="269.92537313432837" y="574.0"/>
      <point x="236.0" y="609.8955223880597"/>
      <point x="236" y="639" type="qcurve" smooth="yes"/>
      <point x="236.0" y="663.6268656716418"/>
      <point x="269.92537313432837" y="704.0"/>
      <point x="305" y="704" type="qcurve" smooth="yes"/>
      <point x="340.07462686567163" y="704.0"/>
      <point x="374.0" y="668"/>
    </contour>
  </outline>
</glyph>
<glyph name="dotaccentcomb.case" format="2">
  <outline>
    <contour>
      <point x="175" y="654" type="qcurve" smooth="yes"/>
      <point x="175.0" y="629"/>
      <point x="141.07462686567163" y="589.0"/>
      <point x="106" y="589" type="qcurve" smooth="yes"/>
      <point x="70.92537313432837" y="589.0"/>
      <point x="37.0" y="624.8955223880597"/>
      <point x="37" y="654" type="qcurve" smooth="yes"/>
      <point x="37.0" y="678.6268656716418"/>
      <point x="70.92537313432837" y="719.0"/>
      <point x="106" y="719" type="qcurve" smooth="yes"/>
      <point x="141.07462686567163" y="719.0"/>
      <point x="175.0" y="683"/>
    </contour>
  </outline>
</glyph>
<glyph name="dotbelowcomb.case" format="2">
  <anchor x="119" y="0" name="_bottom"/>
  <anchor x="119" y="-191" name="bottom"/>
  <outline>
    <contour>
      <point x="175" y="-126" type="qcurve" smooth="yes"/>
      <point x="175" y="-151"/>
      <point x="141" y="-191"/>
      <point x="106" y="-191" type="qcurve" smooth="yes"/>
      <point x="71" y="-191"/>
      <point x="37" y="-155"/>
      <point x="37" y="-126" type="qcurve" smooth="yes"/>
      <point x="37" y="-101"/>
      <point x="71" y="-61"/>
      <point x="106" y="-61" type="qcurve" smooth="yes"/>
      <point x="141" y="-61"/>
      <point x="175" y="-97"/>
    </contour>
  </outline>
</glyph>
<glyph name="nine.dnom" format="2">
  <advance width="333"/>
  <outline>
    <contour>
      <point x="298" y="207" type="qcurve"/>
      <point x="298.0" y="115"/>
      <point x="218.65671641791045" y="-12.0"/>
      <point x="150" y="-12" type="qcurve"/>
      <point x="124.6268656716418" y="-12.0"/>
      <point x="70.70149253731343" y="15.313432835820898"/>
      <point x="61" y="28" type="qcurve"/>
      <point x="94" y="82" type="line"/>
      <point x="104.44776119402985" y="74.53731343283582"/>
      <point x="132.3134328358209" y="62.0"/>
      <point x="145" y="62" type="qcurve" smooth="yes"/>
      <point x="179.32835820895522" y="62.0"/>
      <point x="209.76119402985074" y="115.01492537313433"/>
      <point x="212" y="168" type="qcurve"/>
      <point x="263" y="229" type="line"/>
      <point x="247.32835820895522" y="179.0"/>
      <point x="184.0597014925373" y="123.0"/>
      <point x="146" y="123" type="qcurve"/>
      <point x="95.25373134328359" y="123.0"/>
      <point x="35.0" y="185.46268656716418"/>
      <point x="35" y="228" type="qcurve"/>
      <point x="35.0" y="284.7164179104478"/>
      <point x="112.01492537313433" y="358.0"/>
      <point x="165" y="358" type="qcurve"/>
      <point x="227.6865671641791" y="358.0"/>
      <point x="298.0" y="264"/>
    </contour>
    <contour>
      <point x="114" y="239" type="qcurve"/>
      <point x="114.0" y="217"/>
      <point x="142.3582089552239" y="185.0"/>
      <point x="164" y="185" type="qcurve"/>
      <point x="188.62686567164178" y="185.0"/>
      <point x="219.0" y="217.1044776119403"/>
      <point x="219" y="238" type="qcurve"/>
      <point x="219.0" y="261.88059701492534"/>
      <point x="189.13432835820896" y="294.0"/>
      <point x="166" y="294" type="qcurve"/>
      <point x="145.1044776119403" y="294.0"/>
      <point x="114.0" y="263"/>
    </contour>
  </outline>
</glyph>
